<?xml version="1.0" standalone="no"?>
<!DOCTYPE svg PUBLIC "-//W3C//DTD SVG 20010904//EN"
 "http://www.w3.org/TR/2001/REC-SVG-20010904/DTD/svg10.dtd">
<svg version="1.0" xmlns="http://www.w3.org/2000/svg"
 width="800.000000pt" height="800.000000pt" viewBox="0 0 800.000000 800.000000"
 preserveAspectRatio="xMidYMid meet">
<metadata>
Created by potrace 1.11, written by Peter Selinger 2001-2013
</metadata>
<g transform="translate(0.000000,800.000000) scale(0.100000,-0.100000)"
fill="#000000" stroke="none">
<path d="M7848 7925 c-2 -2 -43 -6 -93 -9 -49 -4 -106 -9 -125 -11 -19 -2 -69
-6 -110 -10 -41 -3 -95 -8 -120 -10 -25 -3 -83 -7 -130 -10 -47 -3 -96 -8
-110 -10 -14 -2 -65 -7 -115 -10 -49 -4 -106 -8 -125 -10 -19 -2 -69 -6 -110
-10 -41 -3 -95 -8 -120 -10 -25 -2 -81 -7 -125 -10 -44 -4 -96 -8 -115 -10
-19 -2 -73 -6 -120 -10 -47 -4 -96 -8 -110 -10 -14 -2 -68 -6 -120 -10 -52 -3
-111 -8 -130 -10 -19 -3 -64 -7 -100 -10 -137 -12 -154 -15 -166 -27 -6 -7
-94 -116 -195 -243 -101 -126 -186 -232 -189 -235 -3 -3 -18 -23 -35 -45 -16
-22 -32 -42 -35 -45 -3 -3 -21 -25 -40 -50 -19 -25 -42 -54 -52 -65 -46 -56
-99 -121 -148 -185 -19 -25 -37 -47 -40 -50 -3 -3 -39 -48 -80 -100 -89 -112
-102 -129 -115 -144 -6 -6 -35 -42 -65 -81 -30 -38 -60 -77 -67 -85 -7 -8 -80
-100 -163 -205 -83 -104 -159 -199 -168 -210 -9 -11 -62 -76 -116 -145 -55
-69 -103 -127 -106 -130 -3 -3 -21 -26 -40 -52 -18 -27 -37 -48 -42 -48 -4 0
-8 -4 -8 -10 0 -5 -8 -18 -17 -28 -19 -20 -28 -31 -83 -102 -19 -25 -37 -47
-40 -50 -3 -3 -39 -48 -80 -100 -41 -52 -79 -100 -85 -106 -5 -6 -20 -24 -32
-40 -18 -23 -251 -316 -551 -692 -15 -18 -32 -39 -37 -45 -6 -7 -48 -59 -94
-117 -45 -58 -90 -114 -99 -125 -10 -11 -33 -40 -52 -65 -43 -55 -62 -79 -75
-94 -6 -6 -52 -63 -103 -127 l-92 -117 -19 -113 c-11 -63 -22 -127 -25 -144
-3 -16 -8 -52 -12 -80 -3 -27 -8 -53 -10 -56 -2 -4 -6 -31 -10 -60 -3 -30 -7
-55 -8 -56 -2 -2 -64 -11 -131 -18 -33 -4 -70 -8 -83 -10 -13 -2 -53 -7 -90
-11 -37 -3 -68 -7 -70 -9 -1 -1 -31 5 -65 15 -34 9 -98 27 -143 39 l-81 22
-74 92 c-41 51 -78 97 -84 103 -5 6 -22 26 -37 45 -25 33 -55 70 -79 97 -6 8
-22 41 -34 75 -107 296 -107 295 -131 301 -12 3 -34 1 -48 -5 -28 -13 -29 -17
-91 -344 -31 -165 -51 -267 -70 -365 -3 -14 -12 -63 -21 -110 -9 -47 -18 -94
-20 -105 -2 -11 -7 -36 -10 -55 -4 -19 -8 -44 -11 -55 -25 -123 -29 -154 -21
-174 8 -23 31 -46 198 -201 51 -47 118 -110 150 -140 32 -30 94 -89 139 -130
45 -41 81 -79 81 -84 0 -5 -26 -33 -57 -64 -32 -30 -137 -130 -233 -223 -163
-157 -182 -171 -277 -219 -57 -28 -106 -50 -109 -50 -4 1 -10 -2 -13 -7 -8
-10 -459 -235 -465 -231 -2 2 -13 -6 -25 -16 -12 -11 -21 -15 -21 -10 0 5 -4
5 -8 -1 -4 -5 -82 -47 -174 -93 -140 -69 -169 -87 -174 -108 -4 -15 5 -86 21
-163 15 -75 29 -145 31 -156 3 -16 58 -282 69 -335 2 -8 11 -51 20 -95 10 -44
19 -93 22 -109 8 -48 21 -74 45 -90 13 -8 104 -30 203 -50 99 -20 257 -52 350
-71 94 -20 179 -37 190 -39 11 -2 54 -12 97 -20 58 -13 82 -14 101 -5 19 9 83
129 295 552 l271 542 108 111 c59 62 161 167 226 234 l119 123 61 -65 c34 -36
107 -114 162 -173 320 -343 308 -331 332 -339 12 -4 68 2 125 14 56 11 113 22
126 25 13 2 31 6 40 9 9 3 33 7 52 10 19 3 190 36 380 75 190 38 362 72 384
75 42 7 96 40 96 59 -1 49 -10 54 -185 118 -107 39 -185 73 -202 89 -15 14
-89 74 -163 134 -74 60 -140 116 -147 125 -6 9 -19 44 -28 76 -9 33 -24 85
-32 115 -20 73 -20 115 2 307 l18 161 31 6 c17 3 49 8 71 11 22 3 51 8 65 11
14 2 36 6 50 9 75 12 227 38 240 40 8 2 22 4 31 4 13 1 96 60 176 125 18 15
144 116 173 139 8 7 29 23 46 37 17 14 48 39 69 55 21 17 55 44 75 60 21 17
54 44 75 60 22 17 57 45 79 63 49 40 58 47 116 92 25 19 47 37 50 40 3 3 48
39 100 80 52 41 100 79 107 85 18 15 28 23 138 110 55 44 102 82 105 85 3 3
37 30 75 60 39 30 75 59 81 65 6 5 29 24 50 40 64 50 157 124 198 158 54 43
246 196 286 227 18 14 42 33 54 43 11 10 34 28 49 40 15 12 37 29 47 38 10 8
31 24 46 35 14 10 34 26 43 35 9 8 36 31 61 49 25 19 50 39 56 45 7 5 26 21
44 35 18 14 37 30 44 35 6 6 27 22 48 37 20 15 42 33 50 40 7 7 40 34 73 59
33 26 74 58 90 72 17 15 102 83 190 153 165 130 220 174 254 202 11 10 32 26
47 37 15 11 32 25 38 30 6 6 99 80 206 164 107 85 200 159 205 165 6 6 39 33
75 61 36 27 67 52 70 55 3 3 23 19 45 36 102 75 145 118 146 146 0 13 2 37 4
53 1 17 6 68 9 115 4 47 9 101 11 120 2 19 7 76 10 125 4 50 8 101 10 115 2
14 6 68 10 120 3 52 8 106 10 120 2 14 7 63 10 110 9 121 15 188 30 355 2 28
7 82 10 120 3 39 8 90 10 115 3 25 7 77 10 115 3 39 7 93 10 120 3 28 8 82 10
120 5 72 11 138 21 237 6 66 -11 103 -51 110 -14 3 -26 4 -27 3z"/>
<path d="M2414 7670 c-12 -5 -79 -41 -150 -81 -71 -39 -147 -82 -169 -94 -22
-12 -83 -45 -135 -74 -52 -30 -120 -67 -150 -84 -30 -16 -67 -39 -82 -49 -16
-11 -28 -17 -28 -13 0 3 -17 -6 -37 -20 -21 -14 -42 -25 -46 -25 -5 0 -21 -8
-35 -19 -15 -10 -58 -35 -97 -56 -95 -52 -104 -56 -490 -272 -333 -186 -391
-219 -478 -266 -236 -131 -250 -141 -250 -180 0 -20 92 -185 318 -572 93 -160
162 -279 183 -315 10 -19 66 -116 124 -215 58 -99 116 -200 130 -225 60 -107
351 -606 360 -616 18 -23 49 -22 101 5 91 47 291 163 309 179 11 9 77 196 159
446 78 237 163 496 189 576 54 164 182 553 389 1185 78 237 141 442 141 455 0
14 -16 51 -36 83 -45 73 -100 159 -111 172 -4 6 -14 22 -22 37 -16 31 -57 49
-87 38z"/>
<path d="M4970 2539 c-41 -22 -109 -58 -151 -80 -83 -43 -103 -70 -89 -116 7
-23 93 -216 193 -433 9 -19 36 -80 60 -135 25 -55 56 -125 70 -155 14 -30 109
-242 212 -470 103 -228 197 -435 208 -460 11 -25 21 -47 22 -50 0 -3 13 -30
27 -60 32 -69 49 -107 133 -295 36 -82 73 -156 80 -164 25 -26 71 -13 240 68
92 45 169 81 170 81 2 0 78 36 170 80 92 44 168 80 170 80 2 0 70 32 152 71
81 39 173 82 203 96 30 14 115 54 189 89 73 35 135 64 136 64 2 0 78 36 170
80 92 44 169 80 170 80 2 0 55 25 118 55 62 30 119 55 125 55 6 0 27 16 47 34
29 28 35 40 30 58 -8 26 -155 344 -170 368 -6 9 -46 31 -90 49 -44 19 -104 44
-133 57 -29 13 -55 24 -57 24 -2 0 -28 11 -57 24 -29 13 -109 47 -178 76 -69
29 -143 60 -165 70 -22 10 -96 41 -165 70 -69 29 -143 60 -165 70 -22 10 -339
145 -705 300 -366 155 -678 288 -695 295 -91 41 -157 65 -177 65 -13 -1 -57
-19 -98 -41z"/>
</g>
</svg>
